<mxfile host="app.diagrams.net" agent="Mozilla/5.0 (Macintosh; Intel Mac OS X 10_15_7) AppleWebKit/537.36 (KHTML, like Gecko) Chrome/129.0.0.0 Safari/537.36" version="24.8.1">
  <diagram name="Page-1" id="ArXYBzV0rwJ9o0tUpTCt">
    <mxGraphModel grid="1" page="1" gridSize="10" guides="1" tooltips="1" connect="1" arrows="1" fold="1" pageScale="1" pageWidth="827" pageHeight="1169" math="0" shadow="0">
      <root>
        <mxCell id="0" />
        <mxCell id="1" parent="0" />
        <mxCell id="0h3j1FESmYzgA11ctJ4R-24" value="&lt;font style=&quot;font-size: 12px;&quot;&gt;Task 2&lt;/font&gt;" style="text;html=1;align=center;verticalAlign=middle;resizable=0;points=[];autosize=1;strokeColor=none;fillColor=none;fontSize=16;" vertex="1" parent="1">
          <mxGeometry x="335.62" y="-50" width="60" height="30" as="geometry" />
        </mxCell>
        <mxCell id="0h3j1FESmYzgA11ctJ4R-119" value="" style="edgeStyle=orthogonalEdgeStyle;rounded=0;orthogonalLoop=1;jettySize=auto;html=1;" edge="1" parent="1" source="0h3j1FESmYzgA11ctJ4R-26" target="0h3j1FESmYzgA11ctJ4R-28">
          <mxGeometry relative="1" as="geometry" />
        </mxCell>
        <mxCell id="0h3j1FESmYzgA11ctJ4R-26" value="Start" style="rounded=1;whiteSpace=wrap;html=1;arcSize=50;" vertex="1" parent="1">
          <mxGeometry x="305.62" y="20" width="120" height="30" as="geometry" />
        </mxCell>
        <mxCell id="0h3j1FESmYzgA11ctJ4R-120" value="" style="edgeStyle=orthogonalEdgeStyle;rounded=0;orthogonalLoop=1;jettySize=auto;html=1;" edge="1" parent="1" source="0h3j1FESmYzgA11ctJ4R-28" target="0h3j1FESmYzgA11ctJ4R-31">
          <mxGeometry relative="1" as="geometry" />
        </mxCell>
        <mxCell id="0h3j1FESmYzgA11ctJ4R-28" value="a[3][3]&amp;nbsp;&lt;div&gt;b[3][3]&lt;span style=&quot;background-color: initial;&quot;&gt;&amp;nbsp;&lt;/span&gt;&lt;/div&gt;&lt;div&gt;&lt;span style=&quot;background-color: initial;&quot;&gt;sum[3][3]&amp;nbsp;&lt;/span&gt;&lt;/div&gt;" style="rounded=0;whiteSpace=wrap;html=1;" vertex="1" parent="1">
          <mxGeometry x="239.99" y="100" width="251.25" height="80" as="geometry" />
        </mxCell>
        <mxCell id="0h3j1FESmYzgA11ctJ4R-121" value="" style="edgeStyle=orthogonalEdgeStyle;rounded=0;orthogonalLoop=1;jettySize=auto;html=1;" edge="1" parent="1" source="0h3j1FESmYzgA11ctJ4R-31" target="0h3j1FESmYzgA11ctJ4R-34">
          <mxGeometry relative="1" as="geometry" />
        </mxCell>
        <mxCell id="0h3j1FESmYzgA11ctJ4R-124" value="" style="edgeStyle=orthogonalEdgeStyle;rounded=0;orthogonalLoop=1;jettySize=auto;html=1;" edge="1" parent="1" source="0h3j1FESmYzgA11ctJ4R-31" target="0h3j1FESmYzgA11ctJ4R-39">
          <mxGeometry relative="1" as="geometry" />
        </mxCell>
        <mxCell id="0h3j1FESmYzgA11ctJ4R-31" value="i= 0; i &amp;lt; 3; i = i + 1" style="shape=hexagon;perimeter=hexagonPerimeter2;whiteSpace=wrap;html=1;fixedSize=1;" vertex="1" parent="1">
          <mxGeometry x="280.63" y="235" width="170" height="40" as="geometry" />
        </mxCell>
        <mxCell id="0h3j1FESmYzgA11ctJ4R-122" value="" style="edgeStyle=orthogonalEdgeStyle;rounded=0;orthogonalLoop=1;jettySize=auto;html=1;" edge="1" parent="1" source="0h3j1FESmYzgA11ctJ4R-34" target="0h3j1FESmYzgA11ctJ4R-36">
          <mxGeometry relative="1" as="geometry" />
        </mxCell>
        <mxCell id="0h3j1FESmYzgA11ctJ4R-126" style="edgeStyle=orthogonalEdgeStyle;rounded=0;orthogonalLoop=1;jettySize=auto;html=1;entryX=0;entryY=0.5;entryDx=0;entryDy=0;" edge="1" parent="1" target="0h3j1FESmYzgA11ctJ4R-31">
          <mxGeometry relative="1" as="geometry">
            <mxPoint x="310.08" y="246.22" as="targetPoint" />
            <mxPoint x="395.6184615384614" y="376.22" as="sourcePoint" />
            <Array as="points">
              <mxPoint x="396" y="360" />
              <mxPoint x="530" y="360" />
              <mxPoint x="530" y="706" />
              <mxPoint x="130" y="706" />
              <mxPoint x="130" y="255" />
            </Array>
          </mxGeometry>
        </mxCell>
        <mxCell id="0h3j1FESmYzgA11ctJ4R-34" value="j = 0; j &amp;lt; 3; j = j + 1" style="shape=hexagon;perimeter=hexagonPerimeter2;whiteSpace=wrap;html=1;fixedSize=1;" vertex="1" parent="1">
          <mxGeometry x="280.62" y="340" width="170" height="40" as="geometry" />
        </mxCell>
        <mxCell id="0h3j1FESmYzgA11ctJ4R-123" value="" style="edgeStyle=orthogonalEdgeStyle;rounded=0;orthogonalLoop=1;jettySize=auto;html=1;" edge="1" parent="1" source="0h3j1FESmYzgA11ctJ4R-36" target="0h3j1FESmYzgA11ctJ4R-38">
          <mxGeometry relative="1" as="geometry" />
        </mxCell>
        <mxCell id="0h3j1FESmYzgA11ctJ4R-36" value="sum[i][j] = a[i][j] + b[i][j]" style="rounded=0;whiteSpace=wrap;html=1;" vertex="1" parent="1">
          <mxGeometry x="291.62" y="450" width="149" height="30" as="geometry" />
        </mxCell>
        <mxCell id="0h3j1FESmYzgA11ctJ4R-125" style="edgeStyle=orthogonalEdgeStyle;rounded=0;orthogonalLoop=1;jettySize=auto;html=1;entryX=0;entryY=0.5;entryDx=0;entryDy=0;" edge="1" parent="1" source="0h3j1FESmYzgA11ctJ4R-38" target="0h3j1FESmYzgA11ctJ4R-34">
          <mxGeometry relative="1" as="geometry">
            <Array as="points">
              <mxPoint x="220" y="590" />
              <mxPoint x="220" y="360" />
            </Array>
          </mxGeometry>
        </mxCell>
        <mxCell id="0h3j1FESmYzgA11ctJ4R-38" value="Output&lt;div&gt;sum[i][j]&lt;br&gt;&lt;/div&gt;" style="shape=parallelogram;perimeter=parallelogramPerimeter;whiteSpace=wrap;html=1;fixedSize=1;" vertex="1" parent="1">
          <mxGeometry x="305.62" y="570" width="120" height="40" as="geometry" />
        </mxCell>
        <mxCell id="0h3j1FESmYzgA11ctJ4R-39" value="End" style="rounded=1;whiteSpace=wrap;html=1;arcSize=50;" vertex="1" parent="1">
          <mxGeometry x="570" y="240" width="120" height="30" as="geometry" />
        </mxCell>
        <mxCell id="0h3j1FESmYzgA11ctJ4R-94" value="" style="edgeStyle=orthogonalEdgeStyle;rounded=0;orthogonalLoop=1;jettySize=auto;html=1;" edge="1" parent="1" source="0h3j1FESmYzgA11ctJ4R-63" target="0h3j1FESmYzgA11ctJ4R-88">
          <mxGeometry relative="1" as="geometry" />
        </mxCell>
        <mxCell id="0h3j1FESmYzgA11ctJ4R-63" value="Start" style="rounded=1;whiteSpace=wrap;html=1;arcSize=50;" vertex="1" parent="1">
          <mxGeometry x="-638.8" y="20" width="120" height="30" as="geometry" />
        </mxCell>
        <mxCell id="0h3j1FESmYzgA11ctJ4R-66" style="edgeStyle=orthogonalEdgeStyle;rounded=0;orthogonalLoop=1;jettySize=auto;html=1;exitX=0.5;exitY=1;exitDx=0;exitDy=0;entryX=0.5;entryY=0;entryDx=0;entryDy=0;" edge="1" parent="1" source="0h3j1FESmYzgA11ctJ4R-68" target="0h3j1FESmYzgA11ctJ4R-70">
          <mxGeometry relative="1" as="geometry" />
        </mxCell>
        <mxCell id="0h3j1FESmYzgA11ctJ4R-96" value="" style="edgeStyle=orthogonalEdgeStyle;rounded=0;orthogonalLoop=1;jettySize=auto;html=1;" edge="1" parent="1" source="0h3j1FESmYzgA11ctJ4R-68" target="0h3j1FESmYzgA11ctJ4R-84">
          <mxGeometry relative="1" as="geometry" />
        </mxCell>
        <mxCell id="0h3j1FESmYzgA11ctJ4R-68" value="i = 0; i &amp;lt; M; i = i + 1" style="shape=hexagon;perimeter=hexagonPerimeter2;whiteSpace=wrap;html=1;fixedSize=1;" vertex="1" parent="1">
          <mxGeometry x="-663.8" y="212.48" width="170" height="40" as="geometry" />
        </mxCell>
        <mxCell id="0h3j1FESmYzgA11ctJ4R-69" style="edgeStyle=orthogonalEdgeStyle;rounded=0;orthogonalLoop=1;jettySize=auto;html=1;exitX=0.5;exitY=1;exitDx=0;exitDy=0;entryX=0.5;entryY=0;entryDx=0;entryDy=0;" edge="1" parent="1" source="0h3j1FESmYzgA11ctJ4R-70" target="0h3j1FESmYzgA11ctJ4R-73">
          <mxGeometry relative="1" as="geometry" />
        </mxCell>
        <mxCell id="0h3j1FESmYzgA11ctJ4R-70" value="temp = m [i] [0]" style="rounded=0;whiteSpace=wrap;html=1;" vertex="1" parent="1">
          <mxGeometry x="-638.8" y="282.47999999999996" width="120" height="30" as="geometry" />
        </mxCell>
        <mxCell id="0h3j1FESmYzgA11ctJ4R-71" style="edgeStyle=orthogonalEdgeStyle;rounded=0;orthogonalLoop=1;jettySize=auto;html=1;exitX=0.5;exitY=1;exitDx=0;exitDy=0;entryX=0.5;entryY=0;entryDx=0;entryDy=0;" edge="1" parent="1" source="0h3j1FESmYzgA11ctJ4R-73" target="0h3j1FESmYzgA11ctJ4R-79">
          <mxGeometry relative="1" as="geometry" />
        </mxCell>
        <mxCell id="0h3j1FESmYzgA11ctJ4R-72" style="edgeStyle=orthogonalEdgeStyle;rounded=0;orthogonalLoop=1;jettySize=auto;html=1;exitX=1;exitY=0.5;exitDx=0;exitDy=0;entryX=0;entryY=0.5;entryDx=0;entryDy=0;" edge="1" parent="1" source="0h3j1FESmYzgA11ctJ4R-73" target="0h3j1FESmYzgA11ctJ4R-68">
          <mxGeometry relative="1" as="geometry">
            <Array as="points">
              <mxPoint x="-270" y="363" />
              <mxPoint x="-270" y="670" />
              <mxPoint x="-790" y="670" />
              <mxPoint x="-790" y="233" />
            </Array>
          </mxGeometry>
        </mxCell>
        <mxCell id="0h3j1FESmYzgA11ctJ4R-73" value="j = 0; j &amp;lt; 3; j = j + 1" style="shape=hexagon;perimeter=hexagonPerimeter2;whiteSpace=wrap;html=1;fixedSize=1;" vertex="1" parent="1">
          <mxGeometry x="-663.8" y="342.47999999999996" width="170" height="40" as="geometry" />
        </mxCell>
        <mxCell id="0h3j1FESmYzgA11ctJ4R-74" value="&lt;font style=&quot;font-size: 12px;&quot;&gt;Task 1&lt;/font&gt;" style="text;html=1;align=center;verticalAlign=middle;resizable=0;points=[];autosize=1;strokeColor=none;fillColor=none;fontSize=16;" vertex="1" parent="1">
          <mxGeometry x="-608.8" y="-50" width="60" height="30" as="geometry" />
        </mxCell>
        <mxCell id="0h3j1FESmYzgA11ctJ4R-75" style="edgeStyle=orthogonalEdgeStyle;rounded=0;orthogonalLoop=1;jettySize=auto;html=1;exitX=1;exitY=0.5;exitDx=0;exitDy=0;entryX=0.5;entryY=0;entryDx=0;entryDy=0;" edge="1" parent="1" source="0h3j1FESmYzgA11ctJ4R-79" target="0h3j1FESmYzgA11ctJ4R-81">
          <mxGeometry relative="1" as="geometry" />
        </mxCell>
        <mxCell id="0h3j1FESmYzgA11ctJ4R-92" value="Y" style="edgeLabel;html=1;align=center;verticalAlign=middle;resizable=0;points=[];" connectable="0" vertex="1" parent="0h3j1FESmYzgA11ctJ4R-75">
          <mxGeometry x="-0.5548" y="2" relative="1" as="geometry">
            <mxPoint as="offset" />
          </mxGeometry>
        </mxCell>
        <mxCell id="0h3j1FESmYzgA11ctJ4R-77" style="edgeStyle=orthogonalEdgeStyle;rounded=0;orthogonalLoop=1;jettySize=auto;html=1;exitX=0;exitY=0.5;exitDx=0;exitDy=0;entryX=0;entryY=0.5;entryDx=0;entryDy=0;" edge="1" parent="1" source="0h3j1FESmYzgA11ctJ4R-79" target="0h3j1FESmYzgA11ctJ4R-73">
          <mxGeometry relative="1" as="geometry">
            <Array as="points">
              <mxPoint x="-740" y="466" />
              <mxPoint x="-740" y="363" />
            </Array>
          </mxGeometry>
        </mxCell>
        <mxCell id="0h3j1FESmYzgA11ctJ4R-91" value="N" style="edgeLabel;html=1;align=center;verticalAlign=middle;resizable=0;points=[];" connectable="0" vertex="1" parent="0h3j1FESmYzgA11ctJ4R-77">
          <mxGeometry x="-0.7868" y="1" relative="1" as="geometry">
            <mxPoint as="offset" />
          </mxGeometry>
        </mxCell>
        <mxCell id="0h3j1FESmYzgA11ctJ4R-79" value="temp &amp;gt; m [ i ] [ j ]" style="rhombus;whiteSpace=wrap;html=1;" vertex="1" parent="1">
          <mxGeometry x="-653.8" y="412.48" width="150" height="107.52" as="geometry" />
        </mxCell>
        <mxCell id="0h3j1FESmYzgA11ctJ4R-80" style="edgeStyle=orthogonalEdgeStyle;rounded=0;orthogonalLoop=1;jettySize=auto;html=1;exitX=0.5;exitY=1;exitDx=0;exitDy=0;entryX=0;entryY=0.5;entryDx=0;entryDy=0;" edge="1" parent="1" source="0h3j1FESmYzgA11ctJ4R-81" target="0h3j1FESmYzgA11ctJ4R-73">
          <mxGeometry relative="1" as="geometry">
            <Array as="points">
              <mxPoint x="-370" y="590" />
              <mxPoint x="-740" y="590" />
              <mxPoint x="-740" y="363" />
            </Array>
          </mxGeometry>
        </mxCell>
        <mxCell id="0h3j1FESmYzgA11ctJ4R-81" value="temp = m [ i ] [ j ]" style="rounded=0;whiteSpace=wrap;html=1;" vertex="1" parent="1">
          <mxGeometry x="-429.99999999999994" y="489.99999999999994" width="120" height="30" as="geometry" />
        </mxCell>
        <mxCell id="0h3j1FESmYzgA11ctJ4R-82" value="End" style="rounded=1;whiteSpace=wrap;html=1;arcSize=50;" vertex="1" parent="1">
          <mxGeometry x="-193.8" y="216.21999999999994" width="120" height="30" as="geometry" />
        </mxCell>
        <mxCell id="0h3j1FESmYzgA11ctJ4R-97" value="" style="edgeStyle=orthogonalEdgeStyle;rounded=0;orthogonalLoop=1;jettySize=auto;html=1;" edge="1" parent="1" source="0h3j1FESmYzgA11ctJ4R-84" target="0h3j1FESmYzgA11ctJ4R-82">
          <mxGeometry relative="1" as="geometry" />
        </mxCell>
        <mxCell id="0h3j1FESmYzgA11ctJ4R-84" value="output&amp;nbsp;&lt;span style=&quot;background-color: initial;&quot;&gt;temp&lt;/span&gt;" style="shape=parallelogram;perimeter=parallelogramPerimeter;whiteSpace=wrap;html=1;fixedSize=1;" vertex="1" parent="1">
          <mxGeometry x="-430" y="209.95999999999998" width="163" height="42.52" as="geometry" />
        </mxCell>
        <mxCell id="0h3j1FESmYzgA11ctJ4R-95" value="" style="edgeStyle=orthogonalEdgeStyle;rounded=0;orthogonalLoop=1;jettySize=auto;html=1;" edge="1" parent="1" source="0h3j1FESmYzgA11ctJ4R-88" target="0h3j1FESmYzgA11ctJ4R-68">
          <mxGeometry relative="1" as="geometry" />
        </mxCell>
        <mxCell id="0h3j1FESmYzgA11ctJ4R-88" value="m [3] [3]&amp;nbsp;" style="rounded=0;whiteSpace=wrap;html=1;" vertex="1" parent="1">
          <mxGeometry x="-693.8" y="100" width="230" height="40" as="geometry" />
        </mxCell>
        <mxCell id="0h3j1FESmYzgA11ctJ4R-89" value="&lt;span style=&quot;color: rgb(0, 0, 0); font-family: Helvetica; font-size: 12px; font-style: normal; font-variant-ligatures: normal; font-variant-caps: normal; font-weight: 400; letter-spacing: normal; orphans: 2; text-align: center; text-indent: 0px; text-transform: none; widows: 2; word-spacing: 0px; -webkit-text-stroke-width: 0px; white-space: normal; background-color: rgb(251, 251, 251); text-decoration-thickness: initial; text-decoration-style: initial; text-decoration-color: initial; display: inline !important; float: none;&quot;&gt;m = int&lt;/span&gt;" style="text;whiteSpace=wrap;html=1;" vertex="1" parent="1">
          <mxGeometry x="-453.75" y="105" width="83.75" height="30" as="geometry" />
        </mxCell>
      </root>
    </mxGraphModel>
  </diagram>
</mxfile>
